<svg width="175" height="175" viewBox="0 0 175 175" fill="none" xmlns="http://www.w3.org/2000/svg">
<path d="M87.4822 1.8166e-06C108.32 -0.00424238 128.476 7.42855 144.323 20.961C160.169 34.4934 170.666 53.2369 173.924 73.8189L87.5 87.5L87.4822 1.8166e-06Z" fill="#8B0000"/>
<path d="M173.924 73.8188C176.629 90.9104 174.207 108.421 166.961 124.135C159.716 139.85 147.974 153.063 133.22 162.105C118.466 171.147 101.362 175.611 84.0705 174.933C66.7794 174.255 50.0776 168.465 36.0769 158.295L87.5 87.5L173.924 73.8188Z" fill="#F4B400"/>
<path d="M36.0769 158.295C21.1282 147.437 10.0002 132.125 4.28751 114.554C-1.42515 96.9834 -1.42927 78.0553 4.27575 60.482C9.98076 42.9087 21.1021 27.5923 36.0461 16.7275C50.9901 5.8627 68.9898 0.00718685 87.466 0L87.5 87.5L36.0769 158.295Z" fill="#27AE60"/>
</svg>
