<svg width="16" height="16" viewBox="0 0 16 16" fill="none" xmlns="http://www.w3.org/2000/svg">
<path d="M6.5 8.66667H1.08334C0.776393 8.66667 0.519282 8.56267 0.312004 8.35467C0.104726 8.14667 0.000725958 7.88956 3.73563e-06 7.58334C-0.000718487 7.27711 0.103282 7.02 0.312004 6.812C0.520726 6.604 0.777837 6.5 1.08334 6.5H6.5V1.08334C6.5 0.776393 6.604 0.519282 6.812 0.312004C7.02 0.104726 7.27711 0.000725958 7.58334 3.73563e-06C7.88956 -0.000718487 8.14703 0.103282 8.35575 0.312004C8.56448 0.520726 8.66812 0.777837 8.66667 1.08334V6.5H14.0833C14.3903 6.5 14.6478 6.604 14.8558 6.812C15.0638 7.02 15.1674 7.27711 15.1667 7.58334C15.1659 7.88956 15.0619 8.14703 14.8547 8.35575C14.6474 8.56448 14.3903 8.66812 14.0833 8.66667H8.66667V14.0833C8.66667 14.3903 8.56267 14.6478 8.35467 14.8558C8.14667 15.0638 7.88956 15.1674 7.58334 15.1667C7.27711 15.1659 7.02 15.0619 6.812 14.8547C6.604 14.6474 6.5 14.3903 6.5 14.0833V8.66667Z" fill="#E1AD01"/>
</svg>
