<svg width="35" height="35" viewBox="0 0 35 35" fill="none" xmlns="http://www.w3.org/2000/svg">
<path fill-rule="evenodd" clip-rule="evenodd" d="M17.4688 2.4375C13.4822 2.4375 9.65896 4.02115 6.84005 6.84005C4.02115 9.65896 2.4375 13.4822 2.4375 17.4688C2.4375 21.4553 4.02115 25.2785 6.84005 28.0974C9.65896 30.9164 13.4822 32.5 17.4688 32.5C21.4553 32.5 25.2785 30.9164 28.0974 28.0974C30.9164 25.2785 32.5 21.4553 32.5 17.4688C32.5 13.4822 30.9164 9.65896 28.0974 6.84005C25.2785 4.02115 21.4553 2.4375 17.4688 2.4375ZM0 17.4688C0 7.82113 7.82113 0 17.4688 0C27.1164 0 34.9375 7.82113 34.9375 17.4688C34.9375 27.1164 27.1164 34.9375 17.4688 34.9375C7.82113 34.9375 0 27.1164 0 17.4688ZM17.4688 6.5C17.792 6.5 18.102 6.6284 18.3305 6.85696C18.5591 7.08552 18.6875 7.39552 18.6875 7.71875V8.23387C21.3362 8.70837 23.5625 10.699 23.5625 13.4062C23.5625 13.7295 23.4341 14.0395 23.2055 14.268C22.977 14.4966 22.667 14.625 22.3438 14.625C22.0205 14.625 21.7105 14.4966 21.482 14.268C21.2534 14.0395 21.125 13.7295 21.125 13.4062C21.125 12.3045 20.2085 11.1361 18.6875 10.7201V16.3589C21.3362 16.8334 23.5625 18.824 23.5625 21.5312C23.5625 24.2385 21.3362 26.2291 18.6875 26.7036V27.2188C18.6875 27.542 18.5591 27.852 18.3305 28.0805C18.102 28.3091 17.792 28.4375 17.4688 28.4375C17.1455 28.4375 16.8355 28.3091 16.607 28.0805C16.3784 27.852 16.25 27.542 16.25 27.2188V26.7036C13.6013 26.2291 11.375 24.2385 11.375 21.5312C11.375 21.208 11.5034 20.898 11.732 20.6695C11.9605 20.4409 12.2705 20.3125 12.5938 20.3125C12.917 20.3125 13.227 20.4409 13.4555 20.6695C13.6841 20.898 13.8125 21.208 13.8125 21.5312C13.8125 22.633 14.729 23.8014 16.25 24.2158V18.5786C13.6013 18.1041 11.375 16.1135 11.375 13.4062C11.375 10.699 13.6013 8.70837 16.25 8.23387V7.71875C16.25 7.39552 16.3784 7.08552 16.607 6.85696C16.8355 6.6284 17.1455 6.5 17.4688 6.5ZM16.25 10.7201C14.729 11.1361 13.8125 12.3045 13.8125 13.4062C13.8125 14.508 14.729 15.6764 16.25 16.0908V10.7201ZM18.6875 18.8451V24.2174C20.2085 23.8014 21.125 22.6346 21.125 21.5312C21.125 20.4295 20.2085 19.2595 18.6875 18.8451Z" fill="#8b0000"/>
</svg>
