<svg width="22" height="24" viewBox="0 0 22 24" fill="none" xmlns="http://www.w3.org/2000/svg">
<path fill-rule="evenodd" clip-rule="evenodd" d="M0 6C0 4.4087 0.632141 2.88258 1.75736 1.75736C2.88258 0.632141 4.4087 0 6 0H19.3333C19.8638 0 20.3725 0.210714 20.7475 0.585787C21.1226 0.960859 21.3333 1.46957 21.3333 2V22C21.3333 22.3536 21.1929 22.6928 20.9428 22.9428C20.6928 23.1929 20.3536 23.3333 20 23.3333H4.66667C3.54429 23.3336 2.4594 22.9294 1.61087 22.1947C0.762338 21.4601 0.207006 20.4442 0.0466665 19.3333H0V6ZM19.3333 16H4.66667C3.95942 16 3.28115 16.281 2.78105 16.781C2.28095 17.2811 2 17.9594 2 18.6667C2 19.3739 2.28095 20.0522 2.78105 20.5523C3.28115 21.0524 3.95942 21.3333 4.66667 21.3333H19.3333V16ZM5.66667 6C5.66667 5.73478 5.77202 5.48043 5.95956 5.29289C6.1471 5.10536 6.40145 5 6.66667 5H16C16.2652 5 16.5196 5.10536 16.7071 5.29289C16.8946 5.48043 17 5.73478 17 6C17 6.26522 16.8946 6.51957 16.7071 6.70711C16.5196 6.89464 16.2652 7 16 7H6.66667C6.40145 7 6.1471 6.89464 5.95956 6.70711C5.77202 6.51957 5.66667 6.26522 5.66667 6ZM6.66667 9C6.40145 9 6.1471 9.10536 5.95956 9.29289C5.77202 9.48043 5.66667 9.73478 5.66667 10C5.66667 10.2652 5.77202 10.5196 5.95956 10.7071C6.1471 10.8946 6.40145 11 6.66667 11H13.3333C13.5986 11 13.8529 10.8946 14.0404 10.7071C14.228 10.5196 14.3333 10.2652 14.3333 10C14.3333 9.73478 14.228 9.48043 14.0404 9.29289C13.8529 9.10536 13.5986 9 13.3333 9H6.66667Z" fill="#C99700"/>
</svg>
