<svg width="50" height="50" viewBox="0 0 50 50" fill="none" xmlns="http://www.w3.org/2000/svg">
<path fill-rule="evenodd" clip-rule="evenodd" d="M25 2.74684e-10C28.283 -1.53891e-05 31.5339 0.646616 34.5671 1.90297C37.6002 3.15933 40.3562 5.00082 42.6777 7.32228C44.9992 9.64374 46.8406 12.3997 48.097 15.4329C49.3534 18.466 50 21.7169 50 25C50 38.8071 38.8071 50 25 50C11.1929 50 0 38.8071 0 25C0 11.1929 11.1929 2.74684e-10 25 2.74684e-10ZM27.5 27.5H22.5C16.3107 27.5 10.9971 31.2485 8.70527 36.5994C12.3315 41.6843 18.2786 45 25 45C31.7214 45 37.6684 41.6843 41.2948 36.5991C39.0029 31.2485 33.6893 27.5 27.5 27.5ZM25 7.5C20.8579 7.5 17.5 10.8579 17.5 15C17.5 19.1421 20.8579 22.5 25 22.5C29.1421 22.5 32.5 19.1421 32.5 15C32.5 10.8579 29.1422 7.5 25 7.5Z" fill="#2C2C2C"/>
</svg>
