<svg width="14" height="16" viewBox="0 0 14 16" fill="none" xmlns="http://www.w3.org/2000/svg">
<path d="M5.83195 8.66667H0.971994C0.696597 8.66667 0.465911 8.56267 0.279937 8.35467C0.0939626 8.14667 0.000651346 7.88956 3.35169e-06 7.58334C-0.000644642 7.27712 0.0926666 7.02 0.279937 6.812C0.467207 6.604 0.697893 6.5 0.971994 6.5H5.83195V1.08334C5.83195 0.776393 5.92526 0.519282 6.11188 0.312004C6.2985 0.104726 6.52919 0.000725958 6.80394 3.73563e-06C7.07869 -0.000718487 7.3097 0.103282 7.49697 0.312004C7.68424 0.520726 7.77723 0.777837 7.77593 1.08334V6.5H12.6359C12.9113 6.5 13.1423 6.604 13.3289 6.812C13.5155 7.02 13.6085 7.27712 13.6079 7.58334C13.6072 7.88956 13.5139 8.14703 13.3279 8.35575C13.142 8.56448 12.9113 8.66812 12.6359 8.66667H7.77593V14.0833C7.77593 14.3903 7.68262 14.6478 7.496 14.8558C7.30937 15.0638 7.07869 15.1674 6.80394 15.1667C6.52919 15.1659 6.2985 15.0619 6.11188 14.8547C5.92526 14.6474 5.83195 14.3903 5.83195 14.0833V8.66667Z" fill="#E1AD01"/>
</svg>
